<?xml version="1.0" standalone="no"?>
<!DOCTYPE svg PUBLIC "-//W3C//DTD SVG 20010904//EN"
 "http://www.w3.org/TR/2001/REC-SVG-20010904/DTD/svg10.dtd">
<svg version="1.0" xmlns="http://www.w3.org/2000/svg"
 width="100.000000pt" height="100.000000pt" viewBox="0 0 100.000000 100.000000"
 preserveAspectRatio="xMidYMid meet">
<metadata>
Created by potrace 1.10, written by Peter Selinger 2001-2011
</metadata>
<g transform="translate(0.000000,100.000000) scale(0.100000,-0.100000)"
fill="#000000" stroke="none">
<path d="M627 994 c-4 -4 -16 -7 -28 -8 -12 0 -24 -7 -27 -14 -2 -7 2 -11 10
-10 21 5 11 -47 -17 -89 -14 -19 -25 -40 -25 -46 0 -18 -40 -95 -56 -108 -8
-6 -31 -14 -52 -16 -20 -2 -40 -7 -44 -11 -5 -5 8 -6 28 -4 30 4 35 2 32 -13
-3 -17 -43 -42 -114 -72 -19 -9 -37 -29 -53 -61 l-23 -48 21 -47 c13 -29 28
-47 39 -47 15 -1 15 -2 -2 -15 -11 -8 -17 -16 -13 -16 4 -1 11 -2 16 -3 20 -2
25 -18 10 -29 -18 -14 -33 -46 -30 -64 2 -13 -36 -26 -58 -21 -8 2 -15 -1 -17
-7 -4 -11 46 -12 64 -1 7 4 17 4 22 1 15 -10 12 -52 -5 -59 -8 -3 -15 -12 -15
-21 0 -12 4 -11 20 5 20 20 28 80 11 80 -14 0 -4 50 14 71 11 11 15 27 12 40
-3 12 3 34 14 52 10 18 19 39 19 47 0 8 14 23 30 32 23 13 30 24 30 47 0 16 5
33 10 36 6 3 10 19 10 34 0 16 6 34 14 41 8 6 16 21 18 32 2 12 9 23 17 26 10
3 11 -2 5 -19 -4 -13 -6 -35 -4 -49 1 -14 3 -37 4 -52 1 -19 4 -24 13 -17 8 7
13 -2 18 -31 4 -22 11 -40 16 -40 5 0 7 12 3 28 -4 21 -3 24 5 12 6 -8 11 -11
11 -7 0 5 -8 21 -19 35 -23 33 -44 98 -37 111 4 5 11 33 16 61 10 54 36 93 45
68 7 -21 32 -257 36 -333 5 -126 5 -131 -30 -170 -18 -21 -38 -49 -44 -64 -7
-14 -22 -41 -34 -60 -19 -27 -23 -48 -23 -107 0 -59 3 -74 15 -74 12 0 15 14
15 69 0 58 4 74 24 98 13 15 27 39 31 53 4 14 14 33 23 42 14 17 16 16 41 -1
36 -26 58 -122 36 -154 -8 -12 -15 -34 -15 -50 0 -15 -7 -30 -15 -33 -8 -4
-15 -11 -15 -16 0 -6 7 -4 17 3 13 11 17 11 20 2 9 -26 19 -11 20 29 1 23 6
44 12 46 6 2 11 15 11 28 0 13 3 24 6 24 16 0 44 -23 44 -35 0 -8 4 -15 8 -15
5 0 10 -6 11 -12 1 -7 3 -26 5 -43 6 -42 6 -42 15 -20 5 11 4 28 -1 38 -5 9
-6 22 -2 28 6 11 -70 89 -87 89 -5 0 -7 16 -6 35 2 30 -3 38 -28 53 -42 24
-45 30 -29 67 10 25 11 64 3 189 -5 87 -11 162 -14 167 -3 4 -8 48 -10 96 -5
94 6 158 30 167 8 3 15 15 15 27 0 12 5 19 13 16 6 -2 11 -15 10 -28 -2 -20
-1 -21 7 -7 16 27 1 48 -34 48 -18 0 -36 -3 -39 -6z m29 -20 c-3 -9 -6 -18 -6
-20 0 -2 -7 -4 -15 -4 -18 0 -19 12 -3 28 17 17 31 15 24 -4z m-206 -353 c0
-11 -7 -27 -16 -35 -8 -9 -14 -24 -13 -33 3 -35 -1 -44 -26 -55 -14 -6 -25
-17 -25 -23 0 -7 -7 -26 -16 -43 -13 -27 -18 -30 -34 -20 -10 7 -17 15 -14 19
2 4 -2 12 -10 18 -12 10 -11 20 3 67 20 64 40 87 75 87 14 0 33 8 42 18 22 24
34 24 34 0z"/>
<path d="M672 917 c-9 -10 -8 -19 2 -33 17 -24 26 -74 14 -74 -11 0 0 -39 17
-60 14 -17 10 -35 -13 -65 -16 -19 -16 -19 2 -3 25 22 43 5 39 -36 l-2 -31 8
30 c5 21 3 35 -7 47 -8 10 -12 24 -9 32 3 8 0 20 -8 26 -20 17 -25 48 -8 54
11 4 12 10 5 19 -5 6 -13 27 -17 45 -3 17 -11 32 -17 32 -6 0 -6 6 2 15 7 8
10 15 7 15 -2 0 -9 -6 -15 -13z"/>
<path d="M267 695 c-22 -16 -22 -28 1 -17 20 11 81 4 100 -11 7 -5 15 -8 17
-5 6 5 -24 20 -71 35 -22 7 -35 7 -47 -2z"/>
<path d="M526 529 c-6 -19 -16 -146 -11 -134 7 15 23 139 19 144 -2 2 -6 -2
-8 -10z"/>
<path d="M209 447 c-19 -18 -53 -38 -76 -45 -24 -7 -43 -17 -43 -22 0 -6 -9
-10 -19 -10 -20 0 -55 -39 -45 -49 3 -3 10 2 15 12 6 9 16 17 24 17 7 0 20 6
27 13 7 7 33 21 57 31 43 17 127 86 105 86 -6 0 -26 -15 -45 -33z"/>
</g>
</svg>
